<mxfile modified="2022-05-31T18:42:21.275Z" host="app.diagrams.net" agent="5.0 (Windows NT 10.0; Win64; x64) AppleWebKit/537.36 (KHTML, like Gecko) Chrome/98.0.4758.102 Safari/537.36" etag="f_oM-NTwl_yzCMOVO-4u" version="18.1.3" type="github">
  <diagram id="WI9T0HZ2pTsCkuznbFz-" name="Page-1">
    <mxGraphModel dx="1117" dy="669" grid="1" gridSize="10" guides="1" tooltips="1" connect="1" arrows="1" fold="1" page="1" pageScale="1" pageWidth="827" pageHeight="1169" math="0" shadow="0">
      <root>
        <mxCell id="0" />
        <mxCell id="1" parent="0" />
        <mxCell id="mC8kgNhdGG92MI_CK5uJ-8" value="Excel to Blob" style="edgeStyle=orthogonalEdgeStyle;rounded=0;orthogonalLoop=1;jettySize=auto;html=1;exitX=0.75;exitY=1;exitDx=0;exitDy=0;entryX=0.758;entryY=0;entryDx=0;entryDy=0;entryPerimeter=0;" edge="1" parent="1" source="mC8kgNhdGG92MI_CK5uJ-1" target="mC8kgNhdGG92MI_CK5uJ-6">
          <mxGeometry relative="1" as="geometry" />
        </mxCell>
        <mxCell id="mC8kgNhdGG92MI_CK5uJ-1" value="Weekly OEE Calculator" style="shape=image;html=1;verticalAlign=top;verticalLabelPosition=bottom;labelBackgroundColor=#ffffff;imageAspect=0;aspect=fixed;image=https://cdn0.iconfinder.com/data/icons/logos-microsoft-office-365/128/Microsoft_Office-02-128.png" vertex="1" parent="1">
          <mxGeometry x="110" y="60" width="80" height="80" as="geometry" />
        </mxCell>
        <mxCell id="mC8kgNhdGG92MI_CK5uJ-2" value="Data Factory" style="aspect=fixed;html=1;points=[];align=center;image;fontSize=12;image=img/lib/azure2/databases/Data_Factory.svg;" vertex="1" parent="1">
          <mxGeometry x="470" y="90" width="68" height="68" as="geometry" />
        </mxCell>
        <mxCell id="mC8kgNhdGG92MI_CK5uJ-3" value="" style="endArrow=none;dashed=1;html=1;dashPattern=1 3;strokeWidth=2;rounded=0;" edge="1" parent="1">
          <mxGeometry width="50" height="50" relative="1" as="geometry">
            <mxPoint x="680" y="180" as="sourcePoint" />
            <mxPoint x="680" y="180" as="targetPoint" />
            <Array as="points">
              <mxPoint x="680" y="300" />
              <mxPoint x="360" y="300" />
              <mxPoint x="360" y="180" />
            </Array>
          </mxGeometry>
        </mxCell>
        <mxCell id="mC8kgNhdGG92MI_CK5uJ-4" value="OEE weekly Pipeline" style="sketch=0;outlineConnect=0;fontColor=#232F3E;gradientColor=none;fillColor=#3F8624;strokeColor=none;dashed=0;verticalLabelPosition=bottom;verticalAlign=top;align=center;html=1;fontSize=12;fontStyle=0;aspect=fixed;pointerEvents=1;shape=mxgraph.aws4.iot_analytics_pipeline;" vertex="1" parent="1">
          <mxGeometry x="392" y="200" width="78" height="42" as="geometry" />
        </mxCell>
        <mxCell id="mC8kgNhdGG92MI_CK5uJ-5" value="Transform the data to pull OEE2 &amp;amp; Implied capacity" style="aspect=fixed;html=1;points=[];align=center;image;fontSize=12;image=img/lib/azure2/analytics/Azure_Databricks.svg;" vertex="1" parent="1">
          <mxGeometry x="510" y="200" width="61.76" height="70" as="geometry" />
        </mxCell>
        <mxCell id="mC8kgNhdGG92MI_CK5uJ-9" style="edgeStyle=orthogonalEdgeStyle;rounded=0;orthogonalLoop=1;jettySize=auto;html=1;" edge="1" parent="1" source="mC8kgNhdGG92MI_CK5uJ-6">
          <mxGeometry relative="1" as="geometry">
            <mxPoint x="310" y="200" as="targetPoint" />
            <Array as="points">
              <mxPoint x="240" y="335" />
              <mxPoint x="240" y="200" />
            </Array>
          </mxGeometry>
        </mxCell>
        <mxCell id="mC8kgNhdGG92MI_CK5uJ-6" value="Blob Storage" style="sketch=0;aspect=fixed;html=1;points=[];align=center;image;fontSize=12;image=img/lib/mscae/BlobBlock.svg;" vertex="1" parent="1">
          <mxGeometry x="125" y="310" width="59.52" height="50" as="geometry" />
        </mxCell>
        <mxCell id="mC8kgNhdGG92MI_CK5uJ-10" value="" style="endArrow=none;dashed=1;html=1;dashPattern=1 3;strokeWidth=2;rounded=0;" edge="1" parent="1">
          <mxGeometry width="50" height="50" relative="1" as="geometry">
            <mxPoint x="720" y="60" as="sourcePoint" />
            <mxPoint x="710" y="60" as="targetPoint" />
            <Array as="points">
              <mxPoint x="720" y="340" />
              <mxPoint x="320" y="340" />
              <mxPoint x="320" y="60" />
            </Array>
          </mxGeometry>
        </mxCell>
        <mxCell id="mC8kgNhdGG92MI_CK5uJ-13" value="Slave Pipeline" style="edgeLabel;html=1;align=center;verticalAlign=middle;resizable=0;points=[];" vertex="1" connectable="0" parent="mC8kgNhdGG92MI_CK5uJ-10">
          <mxGeometry x="0.6715" y="1" relative="1" as="geometry">
            <mxPoint as="offset" />
          </mxGeometry>
        </mxCell>
        <mxCell id="mC8kgNhdGG92MI_CK5uJ-14" value="Data Factory" style="aspect=fixed;html=1;points=[];align=center;image;fontSize=12;image=img/lib/azure2/databases/Data_Factory.svg;" vertex="1" parent="1">
          <mxGeometry x="470" y="400" width="68" height="68" as="geometry" />
        </mxCell>
        <mxCell id="mC8kgNhdGG92MI_CK5uJ-15" value="" style="endArrow=none;dashed=1;html=1;dashPattern=1 3;strokeWidth=2;rounded=0;" edge="1" parent="1">
          <mxGeometry width="50" height="50" relative="1" as="geometry">
            <mxPoint x="680" y="490" as="sourcePoint" />
            <mxPoint x="680" y="490" as="targetPoint" />
            <Array as="points">
              <mxPoint x="680" y="610" />
              <mxPoint x="360" y="610" />
              <mxPoint x="360" y="490" />
            </Array>
          </mxGeometry>
        </mxCell>
        <mxCell id="mC8kgNhdGG92MI_CK5uJ-16" value="OEE weekly Pipeline" style="sketch=0;outlineConnect=0;fontColor=#232F3E;gradientColor=none;fillColor=#3F8624;strokeColor=none;dashed=0;verticalLabelPosition=bottom;verticalAlign=top;align=center;html=1;fontSize=12;fontStyle=0;aspect=fixed;pointerEvents=1;shape=mxgraph.aws4.iot_analytics_pipeline;" vertex="1" parent="1">
          <mxGeometry x="392" y="510" width="78" height="42" as="geometry" />
        </mxCell>
        <mxCell id="mC8kgNhdGG92MI_CK5uJ-17" value="Transform the data to pull OEE2 &amp;amp; Implied capacity" style="aspect=fixed;html=1;points=[];align=center;image;fontSize=12;image=img/lib/azure2/analytics/Azure_Databricks.svg;" vertex="1" parent="1">
          <mxGeometry x="510" y="510" width="61.76" height="70" as="geometry" />
        </mxCell>
        <mxCell id="mC8kgNhdGG92MI_CK5uJ-18" value="" style="endArrow=none;dashed=1;html=1;dashPattern=1 3;strokeWidth=2;rounded=0;" edge="1" parent="1">
          <mxGeometry width="50" height="50" relative="1" as="geometry">
            <mxPoint x="720" y="370" as="sourcePoint" />
            <mxPoint x="710" y="370" as="targetPoint" />
            <Array as="points">
              <mxPoint x="720" y="650" />
              <mxPoint x="320" y="650" />
              <mxPoint x="320" y="370" />
            </Array>
          </mxGeometry>
        </mxCell>
        <mxCell id="mC8kgNhdGG92MI_CK5uJ-19" value="Master Pipeline" style="edgeLabel;html=1;align=center;verticalAlign=middle;resizable=0;points=[];" vertex="1" connectable="0" parent="mC8kgNhdGG92MI_CK5uJ-18">
          <mxGeometry x="0.6715" y="1" relative="1" as="geometry">
            <mxPoint as="offset" />
          </mxGeometry>
        </mxCell>
        <mxCell id="mC8kgNhdGG92MI_CK5uJ-20" value="Similar to OEE3 Pipeline" style="text;html=1;align=center;verticalAlign=middle;resizable=0;points=[];autosize=1;strokeColor=none;fillColor=none;" vertex="1" parent="1">
          <mxGeometry x="550" y="410" width="150" height="20" as="geometry" />
        </mxCell>
        <mxCell id="mC8kgNhdGG92MI_CK5uJ-21" value="Triggers Masters Pipeline" style="endArrow=classic;html=1;rounded=0;" edge="1" parent="1">
          <mxGeometry width="50" height="50" relative="1" as="geometry">
            <mxPoint x="720" y="220" as="sourcePoint" />
            <mxPoint x="730" y="480" as="targetPoint" />
            <Array as="points">
              <mxPoint x="760" y="220" />
              <mxPoint x="760" y="480" />
            </Array>
          </mxGeometry>
        </mxCell>
      </root>
    </mxGraphModel>
  </diagram>
</mxfile>
